{
	"asset":{
		"generator":"Khronos glTF Blender I/O v4.3.47",
		"version":"2.0"
	},
	"scene":0,
	"scenes":[
		{
			"name":"Scene",
			"nodes":[
				0
			]
		}
	],
	"nodes":[
		{
			"mesh":0,
			"name":"single_leg01"
		}
	],
	"materials":[
		{
			"doubleSided":true,
			"name":"Material",
			"pbrMetallicRoughness":{
				"baseColorFactor":[
					0.800000011920929,
					0.800000011920929,
					0.800000011920929,
					1
				],
				"metallicFactor":0,
				"roughnessFactor":0.5
			}
		}
	],
	"meshes":[
		{
			"name":"Plane.011",
			"primitives":[
				{
					"attributes":{
						"POSITION":0,
						"NORMAL":1,
						"TEXCOORD_0":2
					},
					"indices":3,
					"material":0
				}
			]
		}
	],
	"accessors":[
		{
			"bufferView":0,
			"componentType":5126,
			"count":11247,
			"max":[
				0.545400857925415,
				-5.960464477539063e-08,
				0.4088314473628998
			],
			"min":[
				-0.5448442697525024,
				-0.7932178974151611,
				-0.5394627451896667
			],
			"type":"VEC3"
		},
		{
			"bufferView":1,
			"componentType":5126,
			"count":11247,
			"type":"VEC3"
		},
		{
			"bufferView":2,
			"componentType":5126,
			"count":11247,
			"type":"VEC2"
		},
		{
			"bufferView":3,
			"componentType":5123,
			"count":62154,
			"type":"SCALAR"
		}
	],
	"bufferViews":[
		{
			"buffer":0,
			"byteLength":134964,
			"byteOffset":0,
			"target":34962
		},
		{
			"buffer":0,
			"byteLength":134964,
			"byteOffset":134964,
			"target":34962
		},
		{
			"buffer":0,
			"byteLength":89976,
			"byteOffset":269928,
			"target":34962
		},
		{
			"buffer":0,
			"byteLength":124308,
			"byteOffset":359904,
			"target":34963
		}
	],
	"buffers":[
		{
			"byteLength":484212,
			"uri":"data:application/octet-stream;base64,"
		}
	]
}
